<svg width="100" height="100" viewBox="0 0 100 100" fill="none" xmlns="http://www.w3.org/2000/svg">
<circle cx="50" cy="50" r="46" stroke="#7364E3" stroke-width="8"/>
<path d="M24.04 45L22.288 41.82H21.796V45H19.744V36.576H23.188C23.852 36.576 24.416 36.692 24.88 36.924C25.352 37.156 25.704 37.476 25.936 37.884C26.168 38.284 26.284 38.732 26.284 39.228C26.284 39.788 26.124 40.288 25.804 40.728C25.492 41.168 25.028 41.48 24.412 41.664L26.356 45H24.04ZM21.796 40.368H23.068C23.444 40.368 23.724 40.276 23.908 40.092C24.1 39.908 24.196 39.648 24.196 39.312C24.196 38.992 24.1 38.74 23.908 38.556C23.724 38.372 23.444 38.28 23.068 38.28H21.796V40.368ZM33.8841 41.544C33.8841 41.736 33.8721 41.936 33.8481 42.144H29.2041C29.2361 42.56 29.3681 42.88 29.6001 43.104C29.8401 43.32 30.1321 43.428 30.4761 43.428C30.9881 43.428 31.3441 43.212 31.5441 42.78H33.7281C33.6161 43.22 33.4121 43.616 33.1161 43.968C32.8281 44.32 32.4641 44.596 32.0241 44.796C31.5841 44.996 31.0921 45.096 30.5481 45.096C29.8921 45.096 29.3081 44.956 28.7961 44.676C28.2841 44.396 27.8841 43.996 27.5961 43.476C27.3081 42.956 27.1641 42.348 27.1641 41.652C27.1641 40.956 27.3041 40.348 27.5841 39.828C27.8721 39.308 28.2721 38.908 28.7841 38.628C29.2961 38.348 29.8841 38.208 30.5481 38.208C31.1961 38.208 31.7721 38.344 32.2761 38.616C32.7801 38.888 33.1721 39.276 33.4521 39.78C33.7401 40.284 33.8841 40.872 33.8841 41.544ZM31.7841 41.004C31.7841 40.652 31.6641 40.372 31.4241 40.164C31.1841 39.956 30.8841 39.852 30.5241 39.852C30.1801 39.852 29.8881 39.952 29.6481 40.152C29.4161 40.352 29.2721 40.636 29.2161 41.004H31.7841ZM34.5587 41.64C34.5587 40.952 34.6867 40.348 34.9427 39.828C35.2067 39.308 35.5627 38.908 36.0107 38.628C36.4587 38.348 36.9587 38.208 37.5107 38.208C37.9507 38.208 38.3507 38.3 38.7107 38.484C39.0787 38.668 39.3667 38.916 39.5747 39.228V36.12H41.6267V45H39.5747V44.04C39.3827 44.36 39.1067 44.616 38.7467 44.808C38.3947 45 37.9827 45.096 37.5107 45.096C36.9587 45.096 36.4587 44.956 36.0107 44.676C35.5627 44.388 35.2067 43.984 34.9427 43.464C34.6867 42.936 34.5587 42.328 34.5587 41.64ZM39.5747 41.652C39.5747 41.14 39.4307 40.736 39.1427 40.44C38.8627 40.144 38.5187 39.996 38.1107 39.996C37.7027 39.996 37.3547 40.144 37.0667 40.44C36.7867 40.728 36.6467 41.128 36.6467 41.64C36.6467 42.152 36.7867 42.56 37.0667 42.864C37.3547 43.16 37.7027 43.308 38.1107 43.308C38.5187 43.308 38.8627 43.16 39.1427 42.864C39.4307 42.568 39.5747 42.164 39.5747 41.652ZM52.7232 38.304L50.9112 45H48.6432L47.5872 40.656L46.4952 45H44.2392L42.4152 38.304H44.4672L45.4152 43.092L46.5432 38.304H48.7152L49.8552 43.068L50.7912 38.304H52.7232ZM53.0977 41.64C53.0977 40.952 53.2257 40.348 53.4817 39.828C53.7457 39.308 54.1017 38.908 54.5497 38.628C54.9977 38.348 55.4977 38.208 56.0497 38.208C56.5217 38.208 56.9337 38.304 57.2857 38.496C57.6457 38.688 57.9217 38.94 58.1137 39.252V38.304H60.1657V45H58.1137V44.052C57.9137 44.364 57.6337 44.616 57.2737 44.808C56.9217 45 56.5097 45.096 56.0377 45.096C55.4937 45.096 54.9977 44.956 54.5497 44.676C54.1017 44.388 53.7457 43.984 53.4817 43.464C53.2257 42.936 53.0977 42.328 53.0977 41.64ZM58.1137 41.652C58.1137 41.14 57.9697 40.736 57.6817 40.44C57.4017 40.144 57.0577 39.996 56.6497 39.996C56.2417 39.996 55.8937 40.144 55.6057 40.44C55.3257 40.728 55.1857 41.128 55.1857 41.64C55.1857 42.152 55.3257 42.56 55.6057 42.864C55.8937 43.16 56.2417 43.308 56.6497 43.308C57.0577 43.308 57.4017 43.16 57.6817 42.864C57.9697 42.568 58.1137 42.164 58.1137 41.652ZM65.7303 38.232C66.5143 38.232 67.1383 38.488 67.6023 39C68.0743 39.504 68.3103 40.2 68.3103 41.088V45H66.2703V41.364C66.2703 40.916 66.1543 40.568 65.9223 40.32C65.6903 40.072 65.3783 39.948 64.9863 39.948C64.5943 39.948 64.2823 40.072 64.0503 40.32C63.8183 40.568 63.7023 40.916 63.7023 41.364V45H61.6503V38.304H63.7023V39.192C63.9103 38.896 64.1903 38.664 64.5423 38.496C64.8943 38.32 65.2903 38.232 65.7303 38.232ZM70.2042 36.576H72.3042L70.9602 39.792H69.5802L70.2042 36.576ZM76.2336 45.096C75.6496 45.096 75.1296 44.996 74.6736 44.796C74.2176 44.596 73.8576 44.324 73.5936 43.98C73.3296 43.628 73.1816 43.236 73.1496 42.804H75.1776C75.2016 43.036 75.3096 43.224 75.5016 43.368C75.6936 43.512 75.9296 43.584 76.2096 43.584C76.4656 43.584 76.6616 43.536 76.7976 43.44C76.9416 43.336 77.0136 43.204 77.0136 43.044C77.0136 42.852 76.9136 42.712 76.7136 42.624C76.5136 42.528 76.1896 42.424 75.7416 42.312C75.2616 42.2 74.8616 42.084 74.5416 41.964C74.2216 41.836 73.9456 41.64 73.7136 41.376C73.4816 41.104 73.3656 40.74 73.3656 40.284C73.3656 39.9 73.4696 39.552 73.6776 39.24C73.8936 38.92 74.2056 38.668 74.6136 38.484C75.0296 38.3 75.5216 38.208 76.0896 38.208C76.9296 38.208 77.5896 38.416 78.0696 38.832C78.5576 39.248 78.8376 39.8 78.9096 40.488H77.0136C76.9816 40.256 76.8776 40.072 76.7016 39.936C76.5336 39.8 76.3096 39.732 76.0296 39.732C75.7896 39.732 75.6056 39.78 75.4776 39.876C75.3496 39.964 75.2856 40.088 75.2856 40.248C75.2856 40.44 75.3856 40.584 75.5856 40.68C75.7936 40.776 76.1136 40.872 76.5456 40.968C77.0416 41.096 77.4456 41.224 77.7576 41.352C78.0696 41.472 78.3416 41.672 78.5736 41.952C78.8136 42.224 78.9376 42.592 78.9456 43.056C78.9456 43.448 78.8336 43.8 78.6096 44.112C78.3936 44.416 78.0776 44.656 77.6616 44.832C77.2536 45.008 76.7776 45.096 76.2336 45.096Z" fill="white"/>
<path d="M43.336 54.576L41.14 63H38.656L37.312 57.456L35.92 63H33.436L31.3 54.576H33.496L34.708 60.708L36.208 54.576H38.464L39.904 60.708L41.128 54.576H43.336ZM47.4131 63.096C46.7571 63.096 46.1651 62.956 45.6371 62.676C45.1171 62.396 44.7051 61.996 44.4011 61.476C44.1051 60.956 43.9571 60.348 43.9571 59.652C43.9571 58.964 44.1091 58.36 44.4131 57.84C44.7171 57.312 45.1331 56.908 45.6611 56.628C46.1891 56.348 46.7811 56.208 47.4371 56.208C48.0931 56.208 48.6851 56.348 49.2131 56.628C49.7411 56.908 50.1571 57.312 50.4611 57.84C50.7651 58.36 50.9171 58.964 50.9171 59.652C50.9171 60.34 50.7611 60.948 50.4491 61.476C50.1451 61.996 49.7251 62.396 49.1891 62.676C48.6611 62.956 48.0691 63.096 47.4131 63.096ZM47.4131 61.32C47.8051 61.32 48.1371 61.176 48.4091 60.888C48.6891 60.6 48.8291 60.188 48.8291 59.652C48.8291 59.116 48.6931 58.704 48.4211 58.416C48.1571 58.128 47.8291 57.984 47.4371 57.984C47.0371 57.984 46.7051 58.128 46.4411 58.416C46.1771 58.696 46.0451 59.108 46.0451 59.652C46.0451 60.188 46.1731 60.6 46.4291 60.888C46.6931 61.176 47.0211 61.32 47.4131 61.32ZM54.0577 57.42C54.2977 57.052 54.5977 56.764 54.9577 56.556C55.3177 56.34 55.7177 56.232 56.1577 56.232V58.404H55.5937C55.0817 58.404 54.6977 58.516 54.4417 58.74C54.1857 58.956 54.0577 59.34 54.0577 59.892V63H52.0057V56.304H54.0577V57.42ZM59.1905 54.12V63H57.1385V54.12H59.1905ZM60.2696 59.64C60.2696 58.952 60.3976 58.348 60.6536 57.828C60.9176 57.308 61.2736 56.908 61.7216 56.628C62.1696 56.348 62.6696 56.208 63.2216 56.208C63.6616 56.208 64.0616 56.3 64.4216 56.484C64.7896 56.668 65.0776 56.916 65.2856 57.228V54.12H67.3376V63H65.2856V62.04C65.0936 62.36 64.8176 62.616 64.4576 62.808C64.1056 63 63.6936 63.096 63.2216 63.096C62.6696 63.096 62.1696 62.956 61.7216 62.676C61.2736 62.388 60.9176 61.984 60.6536 61.464C60.3976 60.936 60.2696 60.328 60.2696 59.64ZM65.2856 59.652C65.2856 59.14 65.1416 58.736 64.8536 58.44C64.5736 58.144 64.2296 57.996 63.8216 57.996C63.4136 57.996 63.0656 58.144 62.7776 58.44C62.4976 58.728 62.3576 59.128 62.3576 59.64C62.3576 60.152 62.4976 60.56 62.7776 60.864C63.0656 61.16 63.4136 61.308 63.8216 61.308C64.2296 61.308 64.5736 61.16 64.8536 60.864C65.1416 60.568 65.2856 60.164 65.2856 59.652Z" fill="white"/>
</svg>
