<svg width="20" height="20" viewBox="0 0 20 20" fill="none" xmlns="http://www.w3.org/2000/svg">
<path d="M11.4965 18.6904L10.5056 19.6843C10.086 20.1052 9.40746 20.1052 8.99233 19.6843L0.314729 10.9848C-0.104867 10.5639 -0.104867 9.88335 0.314729 9.46695L8.99233 0.762921C9.41193 0.342048 10.0904 0.342048 10.5056 0.762921L11.4965 1.7569C11.9206 2.18225 11.9116 2.87625 11.4787 3.29264L6.0998 8.43268L18.9287 8.43268C19.5224 8.43268 20 8.91176 20 9.50725L20 10.94C20 11.5355 19.5224 12.0146 18.9287 12.0146L6.0998 12.0146L11.4787 17.1546C11.9161 17.571 11.925 18.265 11.4965 18.6904Z" fill="#7364E3"/>
</svg>
