<svg width="30" height="30" viewBox="0 0 30 30" fill="none" xmlns="http://www.w3.org/2000/svg">
<path d="M27.8572 0H2.13616C0.95759 0 0 0.970982 0 2.16295V27.8371C0 29.029 0.95759 30 2.13616 30H27.8572C29.0357 30 30 29.029 30 27.8371V2.16295C30 0.970982 29.0357 0 27.8572 0ZM9.06697 25.7143H4.62054V11.3973H9.07367V25.7143H9.06697ZM6.84375 9.44196C5.41741 9.44196 4.26563 8.28348 4.26563 6.86384C4.26563 5.4442 5.41741 4.28571 6.84375 4.28571C8.2634 4.28571 9.42188 5.4442 9.42188 6.86384C9.42188 8.29018 8.27009 9.44196 6.84375 9.44196ZM25.7344 25.7143H21.288V18.75C21.288 17.0893 21.2545 14.9531 18.9777 14.9531C16.6607 14.9531 16.3058 16.7612 16.3058 18.6295V25.7143H11.8594V11.3973H16.125V13.3527H16.1853C16.7813 12.2277 18.2344 11.0424 20.3973 11.0424C24.8973 11.0424 25.7344 14.0089 25.7344 17.8661V25.7143Z" fill="#7364E3"/>
</svg>
