<svg width="16" height="16" viewBox="0 0 16 16" fill="none" xmlns="http://www.w3.org/2000/svg">
<path d="M6.80281 1.04771L7.59558 0.252525C7.93126 -0.0841751 8.47405 -0.0841751 8.80616 0.252525L15.7482 7.21219C16.0839 7.54889 16.0839 8.09334 15.7482 8.42646L8.80616 15.3897C8.47048 15.7264 7.92769 15.7264 7.59558 15.3897L6.80281 14.5945C6.46356 14.2542 6.47071 13.699 6.8171 13.3659L11.1202 9.25388H0.857047C0.3821 9.25388 0 8.87062 0 8.39422V7.24801C0 6.77162 0.3821 6.38835 0.857047 6.38835H11.1202L6.8171 2.27631C6.46714 1.94319 6.45999 1.38799 6.80281 1.04771Z" fill="#9EACBC"/>
</svg>
